<svg xmlns="http://www.w3.org/2000/svg" xmlns:xlink="http://www.w3.org/1999/xlink" contentStyleType="text/css" height="502px" preserveAspectRatio="none" style="width:437px;height:502px;background:#FFFFFF;" version="1.1" viewBox="0 0 437 502" width="437px" zoomAndPan="magnify"><defs/><g><line style="stroke:#181818;stroke-width:0.5;stroke-dasharray:5.0,5.0;" x1="23" x2="23" y1="81.2969" y2="421.7578"/><line style="stroke:#181818;stroke-width:0.5;stroke-dasharray:5.0,5.0;" x1="150.0391" x2="150.0391" y1="81.2969" y2="421.7578"/><line style="stroke:#181818;stroke-width:0.5;stroke-dasharray:5.0,5.0;" x1="378.2158" x2="378.2158" y1="81.2969" y2="421.7578"/><text fill="#000000" font-family="sans-serif" font-size="14" lengthAdjust="spacing" textLength="31.9102" x="5" y="77.9951">User</text><ellipse cx="23.9551" cy="13.5" fill="#E2E2F0" rx="8" ry="8" style="stroke:#181818;stroke-width:0.5;"/><path d="M23.9551,21.5 L23.9551,48.5 M10.9551,29.5 L36.9551,29.5 M23.9551,48.5 L10.9551,63.5 M23.9551,48.5 L36.9551,63.5 " fill="none" style="stroke:#181818;stroke-width:0.5;"/><text fill="#000000" font-family="sans-serif" font-size="14" lengthAdjust="spacing" textLength="31.9102" x="5" y="433.7529">User</text><ellipse cx="23.9551" cy="445.5547" fill="#E2E2F0" rx="8" ry="8" style="stroke:#181818;stroke-width:0.5;"/><path d="M23.9551,453.5547 L23.9551,480.5547 M10.9551,461.5547 L36.9551,461.5547 M23.9551,480.5547 L10.9551,495.5547 M23.9551,480.5547 L36.9551,495.5547 " fill="none" style="stroke:#181818;stroke-width:0.5;"/><rect fill="#E2E2F0" height="30.2969" rx="2.5" ry="2.5" style="stroke:#181818;stroke-width:0.5;" width="92.709" x="104.0391" y="50"/><text fill="#000000" font-family="sans-serif" font-size="14" lengthAdjust="spacing" textLength="78.709" x="111.0391" y="69.9951">AO Process</text><rect fill="#E2E2F0" height="30.2969" rx="2.5" ry="2.5" style="stroke:#181818;stroke-width:0.5;" width="92.709" x="104.0391" y="420.7578"/><text fill="#000000" font-family="sans-serif" font-size="14" lengthAdjust="spacing" textLength="78.709" x="111.0391" y="440.7529">AO Process</text><rect fill="#E2E2F0" height="30.2969" rx="2.5" ry="2.5" style="stroke:#181818;stroke-width:0.5;" width="105.335" x="326.2158" y="50"/><text fill="#000000" font-family="sans-serif" font-size="14" lengthAdjust="spacing" textLength="91.335" x="333.2158" y="69.9951">TFHE Module</text><rect fill="#E2E2F0" height="30.2969" rx="2.5" ry="2.5" style="stroke:#181818;stroke-width:0.5;" width="105.335" x="326.2158" y="420.7578"/><text fill="#000000" font-family="sans-serif" font-size="14" lengthAdjust="spacing" textLength="91.335" x="333.2158" y="440.7529">TFHE Module</text><polygon fill="#181818" points="138.3936,108.4297,148.3936,112.4297,138.3936,116.4297,142.3936,112.4297" style="stroke:#181818;stroke-width:1.0;"/><line style="stroke:#181818;stroke-width:1.0;" x1="23.9551" x2="144.3936" y1="112.4297" y2="112.4297"/><text fill="#000000" font-family="sans-serif" font-size="13" lengthAdjust="spacing" textLength="97.8999" x="30.9551" y="107.3638">Register Token</text><polygon fill="#181818" points="366.8833,137.5625,376.8833,141.5625,366.8833,145.5625,370.8833,141.5625" style="stroke:#181818;stroke-width:1.0;"/><line style="stroke:#181818;stroke-width:1.0;" x1="150.3936" x2="372.8833" y1="141.5625" y2="141.5625"/><text fill="#000000" font-family="sans-serif" font-size="13" lengthAdjust="spacing" textLength="204.4897" x="157.3936" y="136.4966">Generate Secret Key (id_token)</text><polygon fill="#181818" points="138.3936,166.6953,148.3936,170.6953,138.3936,174.6953,142.3936,170.6953" style="stroke:#181818;stroke-width:1.0;"/><line style="stroke:#181818;stroke-width:1.0;" x1="23.9551" x2="144.3936" y1="170.6953" y2="170.6953"/><text fill="#000000" font-family="sans-serif" font-size="13" lengthAdjust="spacing" textLength="100.8833" x="30.9551" y="165.6294">Encrypt Integer</text><polygon fill="#181818" points="366.8833,195.8281,376.8833,199.8281,366.8833,203.8281,370.8833,199.8281" style="stroke:#181818;stroke-width:1.0;"/><line style="stroke:#181818;stroke-width:1.0;" x1="150.3936" x2="372.8833" y1="199.8281" y2="199.8281"/><text fill="#000000" font-family="sans-serif" font-size="13" lengthAdjust="spacing" textLength="100.8833" x="157.3936" y="194.7622">Encrypt Integer</text><polygon fill="#181818" points="161.3936,224.9609,151.3936,228.9609,161.3936,232.9609,157.3936,228.9609" style="stroke:#181818;stroke-width:1.0;"/><line style="stroke:#181818;stroke-width:1.0;" x1="155.3936" x2="377.8833" y1="228.9609" y2="228.9609"/><text fill="#000000" font-family="sans-serif" font-size="13" lengthAdjust="spacing" textLength="117.1333" x="167.3936" y="223.895">Encrypted Integer</text><polygon fill="#181818" points="138.3936,254.0938,148.3936,258.0938,138.3936,262.0938,142.3936,258.0938" style="stroke:#181818;stroke-width:1.0;"/><line style="stroke:#181818;stroke-width:1.0;" x1="23.9551" x2="144.3936" y1="258.0938" y2="258.0938"/><text fill="#000000" font-family="sans-serif" font-size="13" lengthAdjust="spacing" textLength="98.0269" x="30.9551" y="253.0278">Compute (add)</text><polygon fill="#181818" points="366.8833,283.2266,376.8833,287.2266,366.8833,291.2266,370.8833,287.2266" style="stroke:#181818;stroke-width:1.0;"/><line style="stroke:#181818;stroke-width:1.0;" x1="150.3936" x2="372.8833" y1="287.2266" y2="287.2266"/><text fill="#000000" font-family="sans-serif" font-size="13" lengthAdjust="spacing" textLength="143.3809" x="157.3936" y="282.1606">Add Encrypted Values</text><polygon fill="#181818" points="161.3936,312.3594,151.3936,316.3594,161.3936,320.3594,157.3936,316.3594" style="stroke:#181818;stroke-width:1.0;"/><line style="stroke:#181818;stroke-width:1.0;" x1="155.3936" x2="377.8833" y1="316.3594" y2="316.3594"/><text fill="#000000" font-family="sans-serif" font-size="13" lengthAdjust="spacing" textLength="129.0352" x="167.3936" y="311.2935">Computation Result</text><polygon fill="#181818" points="138.3936,341.4922,148.3936,345.4922,138.3936,349.4922,142.3936,345.4922" style="stroke:#181818;stroke-width:1.0;"/><line style="stroke:#181818;stroke-width:1.0;" x1="23.9551" x2="144.3936" y1="345.4922" y2="345.4922"/><text fill="#000000" font-family="sans-serif" font-size="13" lengthAdjust="spacing" textLength="102.4385" x="30.9551" y="340.4263">Decrypt Integer</text><polygon fill="#181818" points="366.8833,370.625,376.8833,374.625,366.8833,378.625,370.8833,374.625" style="stroke:#181818;stroke-width:1.0;"/><line style="stroke:#181818;stroke-width:1.0;" x1="150.3936" x2="372.8833" y1="374.625" y2="374.625"/><text fill="#000000" font-family="sans-serif" font-size="13" lengthAdjust="spacing" textLength="171.8945" x="157.3936" y="369.5591">Decrypt Integer (id_token)</text><polygon fill="#181818" points="161.3936,399.7578,151.3936,403.7578,161.3936,407.7578,157.3936,403.7578" style="stroke:#181818;stroke-width:1.0;"/><line style="stroke:#181818;stroke-width:1.0;" x1="155.3936" x2="377.8833" y1="403.7578" y2="403.7578"/><text fill="#000000" font-family="sans-serif" font-size="13" lengthAdjust="spacing" textLength="118.6885" x="167.3936" y="398.6919">Decrypted Integer</text><!--SRC=[TO_B2i8m44Nt_OgXgtRX3tGX5AqFH2fQtKf8XXAiIKacY_wzQHLD2Yw7S-VC7SP96xXQD4dF34akUwO8qhA6az4ShKs1MIZh63URNGL7BLo74n_d91ari5ZwT05dRAKbFpVwWIhnFW_6M05RL6WO8LoG6oGuu02P57SQatcigHGtGq-mLuIjBnbwvcmg5U-X-D98kzBFtla66HCYZwIb4C7oZNKERMH-hpAIMladhUieLg_nV-CP2xyEJtnYl_8l]--></g></svg>